{"title":"Bajatey Raho 2013 Hindi Movies Super Cam Rip New Source Good Qua","uid":8746490,"size":736966656,"categoryP":"video","categoryS":"movies","magnet":"?xt=urn:btih:909f03c93fbcf12804645d8228dabf8600ef48f8&amp;dn=Bajatey+Raho+2013+Hindi+Movies+Super+Cam+Rip+New+Source+Good+Qua&amp;tr=udp%3A%2F%2Ftracker.openbittorrent.com%3A80&amp;tr=udp%3A%2F%2Fopen.demonii.com%3A1337&amp;tr=udp%3A%2F%2Ftracker.coppersurfer.tk%3A6969&amp;tr=udp%3A%2F%2Fexodus.desync.com%3A6969","seeders":0,"leechers":1,"uploader":"basicssom","files":2,"time":1374932722,"description":"Bajatey Raho 2013 Hindi Movies Super Cam Rip New Source Good Quality Sample Included ~ â˜»rDXâ˜»\n\nScreen Shots :\n &lt;a href=&quot;\nhttp://myimghosting.serveftp.com/13/BajateyRaho.html&quot; rel=&quot;nofollow&quot; target=&quot;_NEW&quot;&gt;\nhttp://myimghosting.serveftp.com/13/BajateyRaho.html&lt;/a&gt;\n &lt;a href=&quot;\nhttp://myimghost.cwahi.net/BajateyRaho.html&quot; rel=&quot;nofollow&quot; target=&quot;_NEW&quot;&gt;\nhttp://myimghost.cwahi.net/BajateyRaho.html&lt;/a&gt;\n &lt;a href=&quot;\nhttp://users2.jabry.com/myimghost/BajateyRaho/BajateyRaho.jpg&quot; rel=&quot;nofollow&quot; target=&quot;_NEW&quot;&gt;\nhttp://users2.jabry.com/myimghost/BajateyRaho/BajateyRaho.jpg&lt;/a&gt;\n &lt;a href=&quot;\nhttp://users2.jabry.com/myimghost/BajateyRaho/BajateyRaho1.jpg&quot; rel=&quot;nofollow&quot; target=&quot;_NEW&quot;&gt;\nhttp://users2.jabry.com/myimghost/BajateyRaho/BajateyRaho1.jpg&lt;/a&gt;\n\nFormat                                   : MPEG-PS\nFile size                                : 688 MiB\nDuration                                 : 1h 32mn\nOverall bit rate mode                    : Variable\nOverall bit rate                         : 1 043 Kbps\n\nVideo\nID                                       : 224 (0xE0)\nFormat                                   : MPEG Video\nFormat version                           : Version 2\nFormat profile                           : Main@Main\nFormat settings, BVOP                    : Yes\nFormat settings, Matrix                  : Custom\nFormat settings, GOP                     : Variable\nDuration                                 : 1h 32mn\nBit rate mode                            : Variable\nBit rate                                 : 950 Kbps\nWidth                                    : 352 pixels\nHeight                                   : 288 pixels\nDisplay aspect ratio                     : 4:3\nFrame rate                               : 25.000 fps\nStandard                                 : NTSC\nColor space                              : YUV\nChroma subsampling                       : 4:2:0\nBit depth                                : 8 bits\nScan type                                : Progressive\nCompression mode                         : Lossy\nBits/(Pixel*Frame)                       : 0.375\nStream size                              : 632 MiB (92%)\n\nAudio\nID                                       : 192 (0xC0)\nFormat                                   : MPEG Audio\nFormat version                           : Version 1\nFormat profile                           : Layer 2\nDuration                                 : 1h 32mn\nBit rate mode                            : Constant\nBit rate                                 : 64.0 Kbps\nChannel(s)                               : 2 channels\nSampling rate                            : 48.0 KHz\nCompression mode                         : Lossy\nStream size                              : 42.2 MiB (6%)","torrent":{"xt":"urn:btih:909f03c93fbcf12804645d8228dabf8600ef48f8","amp;dn":"Bajatey+Raho+2013+Hindi+Movies+Super+Cam+Rip+New+Source+Good+Qua","amp;tr":["udp%3A%2F%2Ftracker.openbittorrent.com%3A80","udp%3A%2F%2Fopen.demonii.com%3A1337","udp%3A%2F%2Ftracker.coppersurfer.tk%3A6969","udp%3A%2F%2Fexodus.desync.com%3A6969"],"infoHash":"909f03c93fbcf12804645d8228dabf8600ef48f8","infoHashBuffer":{"type":"Buffer","data":[144,159,3,201,63,188,241,40,4,100,93,130,40,218,191,134,0,239,72,248]},"announce":[],"urlList":[]}}